<svg width="210mm" height="297mm" version="1.1" viewBox="0 0 210 297" xmlns="http://www.w3.org/2000/svg">
 <g stroke-width=".26458">
  <path d="m95.25 71.437-22.982-5.7319-17.751 15.683-1.6505-23.628-20.4-12.036 21.962-8.8713 5.1426-23.121 15.224 18.146 23.579-2.2539-12.553 20.086z" fill="#ff1a00" fill-rule="evenodd"/>
  <path d="m142.12 35.908c0.90965 1.1371-1.084 1.7872-1.8899 1.5119-2.184-0.74599-2.2253-3.6542-1.1339-5.2917 1.9522-2.929 6.1655-2.8295 8.6934-0.75595 3.7099 3.0429 3.4558 8.7124 0.37798 12.095-4.1023 4.5088-11.272 4.0919-15.497 3e-6 -5.3166-5.1493-4.7331-13.838 0.37797-18.899 6.1902-6.1292 16.407-5.3773 22.301 0.75595 6.9448 7.2278 6.0232 18.979-1.1339 25.702-8.2632 7.7623-21.552 6.6705-29.104-1.5119-8.5811-9.2973-7.3186-24.126 1.8899-32.506 10.33-9.4008 26.701-7.9673 35.908 2.2678 10.221 11.363 8.6165 29.276-2.6458 39.31" fill="none" stroke="#000"/>
 </g>
</svg>
